Coordinates
version=1
nRows=13
nColumns=34
inDegrees=yes

Units are S.I. units (second, meters, Newtons, ...)
If the header above contains a line with 'inDegrees', this indicates whether rotational values are in degrees (yes) or radians (no).

endheader
time	pelvis_tilt	pelvis_list	pelvis_rotation	pelvis_tx	pelvis_ty	pelvis_tz	hip_flexion_r	hip_adduction_r	hip_rotation_r	knee_angle_r	ankle_angle_r	subtalar_angle_r	mtp_angle_r	hip_flexion_l	hip_adduction_l	hip_rotation_l	knee_angle_l	ankle_angle_l	subtalar_angle_l	mtp_angle_l	lumbar_extension	lumbar_bending	lumbar_rotation	arm_flex_r	arm_add_r	arm_rot_r	elbow_flex_r	pro_sup_r	arm_flex_l	arm_add_l	arm_rot_l	elbow_flex_l	pro_sup_l
      6.50000000	      8.43208231	    -19.79937373	    -53.84881316	      1.99095845	      1.05436613	      4.19642806	    -17.13365775	     14.72267578	     12.09286191	      2.71348375	      3.13525952	     -1.26878749	      0.00000000	    -19.84768630	      5.13949518	     -3.61266432	      7.76910642	      5.51970042	      9.93632085	      0.00000000	    -13.18716050	     -7.59585135	     14.72004420	     19.77576627	     13.76361390	     22.04105676	     22.08347218	    109.53413120	      7.30871829	     21.72010991	     32.90441350	     13.96716702	     92.41676981
      6.51666670	      8.00739543	    -19.56788305	    -54.38536531	      1.99287597	      1.05434659	      4.19899125	    -16.61889777	     14.82804233	     12.44117689	      3.30912686	      3.27563892	     -1.51643157	      0.00000000	    -21.09075891	      5.04210990	     -2.84777632	      5.54060466	      7.01284592	     10.42274048	      0.00000000	    -12.22901720	     -7.14125923	     14.79504165	     19.29562403	     13.75772767	     22.09457737	     22.23032965	    109.54375418	      6.70665755	     21.87579993	     32.56557636	     13.79548436	     92.28445185
      6.53333330	      7.20790267	    -19.35799677	    -55.70490281	      1.99435986	      1.05422189	      4.20309957	    -15.99330912	     15.09204182	     13.33372144	      4.09390151	      3.57881020	     -1.38796791	      0.00000000	    -22.29144962	      4.86817592	     -2.58965480	      3.10333236	      7.88401754	     10.42337437	      0.00000000	    -10.81489184	     -6.36139150	     15.50015648	     18.24613393	     13.62294513	     22.36964000	     22.80477451	    109.62816281	      5.74151438	     22.00677852	     31.50777583	     13.73790406	     91.90915534
      6.55000000	      6.76786517	    -19.21382751	    -56.22082516	      1.99636657	      1.05425129	      4.20604028	    -15.56245664	     15.28792897	     13.72743696	      4.77426011	      4.01789036	     -1.42170601	      0.00000000	    -23.09900044	      4.62576716	     -1.68970732	      1.84113245	      9.86500000	     10.76551973	      0.00000000	     -9.89914228	     -5.72748803	     15.63836490	     17.55718918	     13.59344342	     22.46661115	     22.75436810	    109.66694758	      5.07805119	     22.06219099	     31.12701886	     13.64346884	     91.77961589
      6.56666670	      5.93955916	    -18.78681744	    -57.50127505	      1.99729005	      1.05385014	      4.20976553	    -14.52233551	     15.53971125	     14.32131673	      5.89220475	      4.63163299	     -0.96987391	      0.00000000	    -23.38752694	      4.47898245	     -1.35089294	      0.60271660	     11.46408212	     10.43972270	      0.00000000	     -8.40302666	     -5.03012971	     16.49576902	     16.60394506	     13.44805924	     22.33847949	     23.01137941	    109.72259451	      4.21275619	     22.07151631	     29.92867017	     13.82600162	     91.40137642
      6.58333330	      6.33721011	    -18.70174523	    -58.17846303	      1.99571788	      1.05425809	      4.21037788	    -13.74913980	     15.18483728	     14.34750658	      7.83859608	      5.79164290	     -0.78355169	      0.00000000	    -24.07076733	      5.01671376	     -0.74482109	      0.00000000	     12.77967262	     10.02037451	      0.00000000	     -8.53251385	     -5.41906042	     17.36287535	     16.59233632	     13.33599555	     22.09731198	     22.92639037	    109.85843904	      4.38795332	     22.05226331	     28.86131177	     13.73755662	     91.13509432
      6.60000000	      6.17880633	    -18.35662229	    -58.49244868	      1.99582952	      1.05417418	      4.21097534	    -12.77945026	     15.18290284	     13.99935928	      9.01234697	      5.94771284	     -0.77176198	      0.00000000	    -23.81427565	      5.17383117	     -0.20957568	      0.00000000	     13.67431704	      9.50153887	      0.00000000	     -8.06538732	     -5.36206160	     17.41187800	     16.23670641	     13.23054967	     22.11538199	     22.91047029	    110.00492187	      4.20304997	     21.82212062	     28.16878731	     14.03420225	     90.99536488
      6.61666670	      6.55792180	    -17.99598106	    -58.72796349	      1.99456942	      1.05397540	      4.21104062	    -11.52034542	     14.82020771	     13.35708629	     11.16383246	      6.69031409	     -0.75345389	      0.00000000	    -23.69970508	      5.81807073	      0.25321971	      0.00000000	     13.95221626	      8.11656411	      0.00000000	     -8.01740065	     -6.06934165	     17.27064194	     16.37114033	     13.36543154	     22.42412152	     22.85260875	    110.29665564	      4.40449329	     21.55068819	     27.36464772	     13.99649414	     90.90492104
      6.63333330	      7.05420229	    -17.77578143	    -58.68426882	      1.99310460	      1.05350999	      4.21002513	    -10.21570093	     14.46035450	     12.39030011	     13.53573914	      7.50504023	     -0.57239210	      0.00000000	    -23.69336430	      6.40154805	      1.17293722	      0.00000000	     14.31244773	      6.78036667	      0.00000000	     -8.35269721	     -6.82571139	     16.93974011	     16.73055938	     13.38008388	     22.86184784	     23.03238397	    110.61967941	      4.79151862	     21.27008387	     26.91906140	     14.20689051	     90.97694018
      6.65000000	      7.36968141	    -17.39376674	    -58.64414400	      1.99152020	      1.05254542	      4.20843602	     -8.48575968	     14.00338317	     10.49089308	     16.13149727	      8.87719307	      1.00146768	      0.00000000	    -23.38504038	      6.93292109	      3.50476365	      0.00000000	     14.33606606	      3.95077322	      0.00000000	     -8.46331820	     -7.45617543	     16.52054577	     17.18355790	     13.42675529	     23.69292261	     22.89846466	    111.20599556	      5.21934408	     20.98913018	     26.60190505	     14.37181511	     91.36146991
      6.66666670	      8.03701758	    -17.41334252	    -58.47261365	      1.98919200	      1.05225611	      4.20629657	     -7.77364411	     13.60794944	     10.09411641	     17.81957477	      9.18679340	      0.54826005	      0.00000000	    -23.59453363	      7.49457047	      4.14791018	      0.00000000	     14.45755149	      3.46148355	      0.00000000	     -9.29326661	     -8.19224561	     16.07582326	     17.66593010	     13.48151889	     23.77214639	     23.01008374	    111.30895814	      5.88824481	     20.68248423	     26.71848058	     14.39073998	     91.53822069
      6.68333330	      8.51601915	    -16.82797157	    -58.49738117	      1.98677792	      1.05095525	      4.20397087	     -6.10994938	     12.95375403	      9.10311899	     20.02361949	      9.94683659	      0.76295398	      0.00000000	    -23.10272727	      8.29330938	      6.28557195	      0.00000000	     14.16984939	      0.88593713	      0.00000000	     -9.43903606	     -9.03196297	     16.04485107	     18.16793264	     13.44053000	     24.13597867	     22.59669135	    111.58425520	      6.45910802	     20.41198746	     27.18348345	     14.26731966	     92.00929563
      6.70000000	      8.98766207	    -16.97918830	    -58.58650641	      1.98411222	      1.05064214	      4.20248409	     -5.89535685	     12.71690254	      8.95389258	     20.87210393	      9.86652070	      0.45970441	      0.00000000	    -23.34265919	      8.63985531	      6.54920502	      0.00000000	     14.30211581	      0.68705533	      0.00000000	    -10.22652409	     -9.44386731	     16.13946330	     18.64051304	     13.34363435	     24.10446462	     22.55120198	    111.59651128	      7.09291744	     20.31554929	     27.20922687	     14.20861354	     92.04494747
